<?xml version="1.0" encoding="utf-8"?>
<!-- Generator: Adobe Illustrator 16.0.0, SVG Export Plug-In . SVG Version: 6.00 Build 0)  -->
<!DOCTYPE svg PUBLIC "-//W3C//DTD SVG 1.1//EN" "http://www.w3.org/Graphics/SVG/1.1/DTD/svg11.dtd">
<svg version="1.1" id="Logo_Design" xmlns="http://www.w3.org/2000/svg" xmlns:xlink="http://www.w3.org/1999/xlink" x="0px"
	 y="0px" viewBox="0 0 564 231" enable-background="new 0 0 564 231" xml:space="preserve">
<g id="Toilet">
	<g>
		<path id="Message" fill="#1C8BFF" d="M171.963,74.708h-58.539c-6.397,0-11.583,5.188-11.583,11.586v44.526
			c0,6.399,5.186,11.581,11.583,11.581h5.725l21.785,13.891v-13.891h31.029c6.397,0,11.582-5.182,11.582-11.581V86.294
			C183.545,79.896,178.36,74.708,171.963,74.708z"/>
		<g id="Toilet_1_">
			<g>
				<path fill="#FFFFFF" d="M118.512,81.48c3.304,8.228,6.607,16.456,9.911,24.684c0.253,0.63,0.721,1.101,1.446,1.101
					c11.853,0,23.705,0,35.558,0c-0.354-0.854-0.707-1.707-1.061-2.561c-4.537,4.112-9.074,8.226-13.61,12.338
					c-0.639,0.579-0.512,1.526,0,2.121c4.537,5.272,9.073,10.544,13.61,15.816c0.354-0.854,0.707-1.707,1.061-2.561
					c-13.181,0-26.363,0-39.544,0c0.482,0.633,0.964,1.266,1.446,1.898c0.939-5.342,1.878-10.684,2.816-16.025
					c0.333-1.892-2.558-2.7-2.893-0.797c-0.939,5.342-1.878,10.684-2.816,16.025c-0.167,0.946,0.401,1.898,1.446,1.898
					c13.181,0,26.363,0,39.544,0c1.382,0,1.887-1.6,1.061-2.561c-4.537-5.272-9.073-10.544-13.61-15.816c0,0.707,0,1.414,0,2.121
					c4.537-4.112,9.074-8.226,13.61-12.338c0.989-0.896,0.201-2.561-1.061-2.561c-11.853,0-23.705,0-35.558,0
					c0.482,0.367,0.964,0.734,1.446,1.101c-3.304-8.228-6.607-16.456-9.911-24.684C120.693,78.91,117.791,79.683,118.512,81.48
					L118.512,81.48z"/>
			</g>
		</g>
		<g id="Logo">
			<path fill="#1C8BFF" d="M214.069,98.07v-1.55h-8.971V83.46h-1.55v13.06h-7.27v1.55h7.27v30.79c0,2.84,0.63,4.78,1.9,5.84
				c1.26,1.061,2.79,1.59,4.6,1.59c1.19,0,2-0.029,2.44-0.079c0.439-0.051,0.89-0.101,1.35-0.16v-1.54
				c-0.26,0.1-0.689,0.16-1.31,0.189c-0.62,0.03-1.32,0.04-2.09,0.04c-0.62,0-1.24-0.04-1.86-0.12c-0.62-0.069-1.19-0.319-1.7-0.729
				c-0.52-0.41-0.939-1.03-1.28-1.86c-0.33-0.819-0.5-1.979-0.5-3.479V98.07H214.069z"/>
			<path fill="#1C8BFF" d="M252.059,108.55c-0.779-2.5-1.93-4.7-3.449-6.61c-1.521-1.91-3.391-3.44-5.601-4.6
				c-2.22-1.16-4.779-1.74-7.66-1.74c-2.939,0-5.52,0.58-7.739,1.74c-2.221,1.16-4.091,2.69-5.61,4.6s-2.67,4.11-3.44,6.61
				c-0.77,2.5-1.159,5.12-1.159,7.85c0,2.74,0.39,5.36,1.159,7.86c0.771,2.5,1.921,4.7,3.44,6.609c1.52,1.91,3.39,3.431,5.61,4.57
				c2.22,1.13,4.77,1.7,7.659,1.7c2.94,0,5.521-0.57,7.74-1.7c2.21-1.14,4.08-2.66,5.601-4.57c1.52-1.909,2.67-4.109,3.449-6.609
				c0.771-2.5,1.16-5.12,1.16-7.86C253.219,113.67,252.829,111.05,252.059,108.55z M250.619,123.681
				c-0.69,2.32-1.74,4.37-3.13,6.149c-1.391,1.771-3.11,3.19-5.141,4.25c-2.04,1.061-4.369,1.591-7,1.591
				c-2.689,0-5.04-0.53-7.08-1.591c-2.039-1.06-3.75-2.479-5.149-4.25c-1.39-1.779-2.43-3.829-3.13-6.149
				c-0.69-2.33-1.04-4.75-1.04-7.28c0-2.47,0.35-4.87,1.04-7.19c0.7-2.32,1.74-4.37,3.13-6.15c1.399-1.78,3.11-3.21,5.149-4.29
				c2.04-1.09,4.391-1.63,7.08-1.63c2.631,0,4.96,0.54,7,1.63c2.03,1.08,3.75,2.51,5.141,4.29c1.39,1.78,2.439,3.83,3.13,6.15
				c0.7,2.32,1.05,4.72,1.05,7.19C251.669,118.931,251.319,121.351,250.619,123.681z"/>
			<path fill="#1C8BFF" d="M259.639,96.521v39.77h1.54v-39.77H259.639z M259.639,83.46v5.4h1.54v-5.4H259.639z"/>
			<path fill="#1C8BFF" d="M269.689,83.46v52.83h1.55V83.46H269.689z"/>
			<path fill="#1C8BFF" d="M311.429,108.82c-0.65-2.52-1.68-4.77-3.1-6.73s-3.25-3.53-5.49-4.72c-2.24-1.18-4.91-1.77-8.01-1.77
				c-2.21,0-4.38,0.46-6.49,1.39c-2.12,0.93-3.979,2.28-5.57,4.06c-1.6,1.78-2.89,3.96-3.869,6.54c-0.98,2.58-1.471,5.51-1.471,8.81
				c0,2.95,0.33,5.69,1,8.24c0.67,2.56,1.71,4.77,3.101,6.66c1.39,1.88,3.18,3.34,5.37,4.37c2.199,1.029,4.84,1.52,7.93,1.47
				c4.54,0,8.359-1.28,11.449-3.83c3.101-2.56,4.931-6.15,5.49-10.79h-1.54c-0.67,4.38-2.39,7.67-5.149,9.86
				c-2.761,2.189-6.221,3.29-10.4,3.29c-2.84,0-5.239-0.49-7.189-1.471c-1.971-0.979-3.561-2.319-4.8-4.029
				c-1.24-1.7-2.16-3.7-2.75-5.99c-0.591-2.29-0.91-4.78-0.971-7.47h33.271C312.339,113.98,312.068,111.351,311.429,108.82z
				 M278.969,115.171c0.16-2.791,0.67-5.291,1.55-7.51c0.881-2.21,2.03-4.11,3.44-5.68c1.42-1.58,3.07-2.77,4.96-3.6
				c1.88-0.82,3.899-1.24,6.07-1.24c2.579,0,4.85,0.48,6.81,1.43c1.96,0.96,3.59,2.26,4.91,3.91c1.31,1.65,2.3,3.57,2.979,5.76
				c0.67,2.2,1,4.5,1,6.93H278.969z"/>
			<path fill="#1C8BFF" d="M331.659,98.07v-1.55h-8.98V83.46h-1.54v13.06h-7.28v1.55h7.28v30.79c0,2.84,0.63,4.78,1.89,5.84
				c1.261,1.061,2.801,1.59,4.601,1.59c1.189,0,2-0.029,2.439-0.079c0.44-0.051,0.891-0.101,1.351-0.16v-1.54
				c-0.25,0.1-0.69,0.16-1.311,0.189c-0.619,0.03-1.319,0.04-2.09,0.04c-0.62,0-1.24-0.04-1.859-0.12
				c-0.61-0.069-1.181-0.319-1.7-0.729c-0.51-0.41-0.94-1.03-1.271-1.86c-0.34-0.819-0.51-1.979-0.51-3.479V98.07H331.659z"/>
			<path fill="#1C8BFF" d="M356.869,102.871v-6.58h-7.96V83.46h-8.82v12.83h-6.66v6.58h6.66v23.59c0.05,1.649,0.22,3.119,0.5,4.409
				s0.83,2.36,1.63,3.21c0.79,0.851,1.9,1.5,3.32,1.931c1.42,0.439,3.29,0.66,5.609,0.66c0.98,0,1.931-0.051,2.86-0.15
				c0.93-0.11,1.88-0.21,2.86-0.31V129.4c-0.61,0.16-1.23,0.25-1.851,0.271c-0.62,0.029-1.24,0.04-1.859,0.04
				c-0.98,0-1.75-0.12-2.32-0.351c-0.57-0.229-0.99-0.58-1.271-1.04c-0.29-0.47-0.47-1.03-0.55-1.7
				c-0.069-0.67-0.109-1.47-0.109-2.399v-21.35H356.869z"/>
			<path fill="#1C8BFF" d="M399.729,130.41h-0.93c-0.82,0-1.38-0.239-1.66-0.699s-0.43-1.24-0.43-2.32v-20.58
				c0-2.11-0.46-3.9-1.391-5.37c-0.93-1.47-2.149-2.67-3.67-3.6c-1.52-0.93-3.239-1.6-5.149-2.01c-1.91-0.42-3.84-0.62-5.8-0.62
				c-2.221,0-4.381,0.2-6.5,0.62c-2.11,0.41-4.011,1.13-5.681,2.16c-1.68,1.03-3.06,2.4-4.14,4.1c-1.08,1.71-1.7,3.85-1.86,6.42
				h8.82c0.21-2.16,1.11-3.76,2.71-4.79c1.6-1.03,3.63-1.55,6.11-1.55c0.88,0,1.8,0.07,2.779,0.19c0.98,0.13,1.87,0.39,2.67,0.78
				c0.801,0.38,1.471,0.94,2.011,1.66c0.55,0.72,0.819,1.65,0.819,2.79c0,1.28-0.33,2.25-0.97,2.9c-0.65,0.64-1.52,1.12-2.63,1.43
				s-2.39,0.53-3.83,0.66c-1.44,0.12-2.97,0.34-4.56,0.65c-1.86,0.21-3.7,0.51-5.54,0.89c-1.83,0.391-3.48,1.021-4.95,1.9
				c-1.47,0.87-2.65,2.09-3.55,3.63c-0.91,1.55-1.36,3.561-1.36,6.04c0,1.96,0.38,3.67,1.12,5.14c0.75,1.471,1.76,2.681,3.02,3.641
				c1.261,0.95,2.721,1.67,4.37,2.16c1.65,0.489,3.38,0.739,5.181,0.739c2.38,0,4.84-0.39,7.39-1.159
				c2.55-0.771,4.71-2.011,6.46-3.71c0.36,1.8,1.13,3.06,2.32,3.789c1.189,0.721,2.68,1.08,4.489,1.08
				c0.36,0,0.801-0.029,1.311-0.08c0.52-0.05,1.03-0.13,1.55-0.229s1.02-0.22,1.51-0.35c0.49-0.131,0.891-0.24,1.2-0.351v-6.109
				C400.509,130.36,400.089,130.41,399.729,130.41z M387.898,122.83c0,1.391-0.34,2.561-1.01,3.511c-0.67,0.96-1.51,1.75-2.52,2.359
				c-1,0.62-2.07,1.061-3.2,1.32c-1.141,0.26-2.2,0.39-3.18,0.39c-0.771,0-1.641-0.08-2.591-0.239c-0.949-0.15-1.83-0.42-2.63-0.811
				c-0.8-0.39-1.479-0.91-2.05-1.58s-0.85-1.5-0.85-2.479c0-1.13,0.189-2.101,0.58-2.9c0.39-0.8,0.92-1.439,1.59-1.93
				s1.439-0.88,2.319-1.16c0.87-0.29,1.78-0.51,2.71-0.66c1.95-0.36,3.91-0.63,5.87-0.81c1.96-0.181,3.61-0.71,4.96-1.59V122.83z"/>
			<path fill="#1C8BFF" d="M406.459,83.46v52.83h8.819V83.46H406.459z"/>
			<path fill="#1C8BFF" d="M445.369,110.991l15.319-14.7h-10.83l-15.939,16.17v-29h-8.82v52.83h8.82v-14.31l5.26-5.11l12.23,19.42
				h10.75L445.369,110.991z"/>
		</g>
	</g>
</g>
<g>
</g>
<g>
</g>
<g>
</g>
<g>
</g>
<g>
</g>
<g>
</g>
</svg>
